***************************************************************

[IMG]http://www.hotimg.org/images/67363952943939111394.png[/IMG]

***************************************************************

[img]http://www.imagezon3.com/images/OXbEK.jpg[/img]

***************************************************************

FILM TITLE: Dream House (2011)

***************************************************************

Genre:  Drama | Mystery | Thriller    

Rated PG-13 for violence, terror, some sexuality and brief strong language

Release:  21 October 2011 (Poland) 

Director: Jim Sheridan

Writer: David Loucka (screenplay)

Stars:  Daniel Craig, Rachel Weisz and Naomi Watts

Country: USA

Language:  English

Plot:
Soon after moving into their seemingly idyllic new home, 
a family learns of a brutal crime committed against former 
residents of the dwelling.

IMDB Rating: 5.7/10 from 11,187 users   Metascore: 35/100
 
http://www.imdb.com/title/tt1462041/

****************************************************************

[url=http://www.imagezon3.com/images/VWIA.png][img]http://www.imagezon3.com/images/thumbs/VWIA.png[/img][/url]
[url=http://www.imagezon3.com/images/U3Dn.png][img]http://www.imagezon3.com/images/thumbs/U3Dn.png[/img][/url]
[url=http://www.imagezon3.com/images/aOH93.png][img]http://www.imagezon3.com/images/thumbs/aOH93.png[/img][/url]
[url=http://www.imagezon3.com/images/coeLa.png][img]http://www.imagezon3.com/images/thumbs/coeLa.png[/img][/url]

****************************************************************

General
Unique ID                        : 225223082387343304593930872739362257582 (0xA970634A6143A74083906F361C6C3AAE)
Complete name                    : Dream House 2011 720p BDRip x264 ac3 subs (mkv) [GREYSHADOW].mkv
Format                           : Matroska
Format version                   : Version 2
File size                        : 3.63 GiB
Duration                         : 1h 31mn
Overall bit rate                 : 5641 Kbps
Encoded date                     : UTC 2012-02-21 16:00:03
Writing application              : mkvmerge v5.3.0 ('I could have danced') built on Feb  9 2012 10:38:07
Writing library                  : libebml v1.2.3 + libmatroska v1.3.0

Video
ID                               : 1
Format                           : AVC
Format/Info                      : Advanced Video Codec
Format profile                   : High@L4.1
Format settings, CABAC           : Yes
Format settings, ReFrames        : 12 frames
Muxing mode                      : Header stripping
Codec ID                         : V_MPEG4/ISO/AVC
Duration                         : 1h 31mn
Bit rate                         : 5000 Kbps
Width                            : 1280 pixels
Height                           : 528 pixels
Display aspect ratio             : 2.40:1
Frame rate                       : 23.976 fps
Color space                      : YUV
Chroma subsampling               : 4:2:0
Bit depth                        : 8 bits
Scan type                        : Progressive
Bits/(Pixel*Frame)               : 0.309
Stream size                      : 3.14 GiB (87%)
Title                            : AVC MPEG4 Video
Writing library                  : x264 core 120 r2164 da19765
Language                         : English
Color primaries                  : BT.709-5, BT.1361, IEC 61966-2-4, SMPTE RP177
Transfer characteristics         : BT.709-5, BT.1361
Matrix coefficients              : BT.709-5, BT.1361, IEC 61966-2-4 709, SMPTE RP177

Audio
ID                               : 2
Format                           : AC-3
Format/Info                      : Audio Coding 3
Mode extension                   : CM (complete main)
Muxing mode                      : Header stripping
Codec ID                         : A_AC3
Duration                         : 1h 31mn
Bit rate mode                    : Constant
Bit rate                         : 640 Kbps
Channel(s)                       : 6 channels
Channel positions                : Front: L C R, Side: L R, LFE
Sampling rate                    : 48.0 KHz
Bit depth                        : 16 bits
Compression mode                 : Lossy
Stream size                      : 421 MiB (11%)
Title                            : AC3 5.1 640 kbps Audio
Language                         : English

Text #1
ID                               : 3
Format                           : UTF-8
Codec ID                         : S_TEXT/UTF8
Codec ID/Info                    : UTF-8 Plain Text
Title                            : English (Hard Of Hearing) .srt Subtitles
Language                         : English

Text #2
ID                               : 4
Format                           : UTF-8
Codec ID                         : S_TEXT/UTF8
Codec ID/Info                    : UTF-8 Plain Text
Title                            : French .srt Subtitles
Language                         : French

Text #3
ID                               : 5
Format                           : UTF-8
Codec ID                         : S_TEXT/UTF8
Codec ID/Info                    : UTF-8 Plain Text
Title                            : Spanish .srt Subtitles
Language                         : Spanish

****************************************************************

Video Source: Dream.House.2011.BluRay.1080p.VC-1.DTS-HD.MA5.1-CHDBits (26.9GB)

Thanks: chdbits.org

****************************************************************

I provide a small sample, so please download this to check your 
compatibility first if you are unsure.

****************************************************************

I have provided tutorials here :- 
http://tutorials4all.freeforums.org/index.php?sid=fb109f91dedb2901c4d0b39625c431f7
This is for opening my mkv encodes, remuxing to Bluray for PS3 or mkv with additional or 
selected audio or subtitles which I will now start supplying.

I allow transfer of my encodes to any site, just give me credit (Thanks: GREYSHADOW)

****************************************************************